:SAMPLES-PER-SECOND 25
:FULLY-SPECIFIED
:DEGREES
167
root  1.71469 66.6828 36.6582 177.041 -73.3677 -177.6
RightUpLeg  -9.05305 -3.90504 3.14935
RightLeg  12.7893 -13.1898 -0.145243
RightFoot  -1.87318 -0.0946703 0.988039
RightToes  2.84633e-005 7.89722e-005 -0.000426369
Spine  1.12247 -0.992223 4.60303
Spine1  2.1383 -1.94513 7.02615
HEad  30.1921 -11.097 -10.3838
LeftShoulder1  -3.88251e-019 0 -3.92111e-022
LeftArm  -34.5746 0.554259 -84.5972
LeftForeArm  31.4718 2.23864 -1.08744
LeftHand  -0.683325 -4.77533 8.09197
RightShoulder  7.45443e-017 -2.42657e-020 1.96277e-018
RightArm  -31.4167 -18.187 70.2295
RightForeArm  23.2503 0.811841 0.727751
RightHand  -1.29533 8.93997 -10.8254
LeftUpLeg  -10.7004 9.24438 -0.6156
LeftLeg  35.9061 16.9312 13.1026
LeftFoot  -14.4838 0.223465 4.96833
LeftToes  3.91355e-005 3.11907e-005 -4.10385e-006
168
root  1.4389 66.7114 36.9283 178.07 -66.2844 -178.886
RightUpLeg  -8.76627 -1.89003 3.4696
RightLeg  12.5303 -8.3355 -0.122255
RightFoot  -1.83259 -0.0468349 0.414108
RightToes  2.84633e-005 7.89722e-005 -0.000426369
Spine  1.30625 -0.745997 4.63174
Spine1  2.53037 -1.48332 7.08237
HEad  30.7093 -9.73697 -9.72181
LeftShoulder1  -3.88251e-019 0 -3.92111e-022
LeftArm  -34.3742 1.26291 -84.6497
LeftForeArm  31.3293 2.25396 -1.19415
LeftHand  -0.681929 -4.72089 8.11676
RightShoulder  7.45443e-017 -2.42657e-020 1.96277e-018
RightArm  -31.1732 -17.7617 70.1726
RightForeArm  23.4543 0.843841 0.972873
RightHand  -1.27631 9.20307 -10.4916
LeftUpLeg  -11.6033 5.70176 -0.566883
LeftLeg  34.6226 15.0587 11.2629
LeftFoot  -14.7194 0.23639 5.01807
LeftToes  3.91355e-005 3.11907e-005 -4.10385e-006
169
root  1.16162 66.7291 37.188 178.47 -59.2235 -179.461
RightUpLeg  -8.77027 0.11508 3.96252
RightLeg  12.6356 -3.64109 -0.346129
RightFoot  -1.80528 -0.0154652 0.0371961
RightToes  2.84633e-005 7.89722e-005 -0.000426369
Spine  1.51736 -0.530005 4.50805
Spine1  2.97986 -1.094 6.93162
HEad  31.0111 -8.90928 -8.80337
LeftShoulder1  -3.88251e-019 0 -3.92111e-022
LeftArm  -34.362 1.55328 -84.1819
LeftForeArm  31.7678 2.23985 -1.16262
LeftHand  -0.656731 -4.73417 7.81872
RightShoulder  7.45443e-017 -2.42657e-020 1.96277e-018
RightArm  -31.0207 -17.247 70.456
RightForeArm  23.7153 0.902551 1.38258
RightHand  -1.32316 9.49129 -10.6607
LeftUpLeg  -12.5896 1.98839 -0.246972
LeftLeg  32.6682 12.5988 8.90993
LeftFoot  -15.4072 0.279695 5.25436
LeftToes  3.91355e-005 3.11907e-005 -4.10385e-006
170
root  0.837106 66.719 37.4452 178.321 -52.5538 -179.465
RightUpLeg  -8.73795 1.42458 4.2105
RightLeg  12.8763 1.51219 0.15262
RightFoot  -2.01263 -0.0447555 0.380853
RightToes  2.84633e-005 7.89722e-005 -0.000426369
Spine  1.79512 -0.498022 4.44503
Spine1  3.55194 -1.07586 6.92894
HEad  31.1005 -8.07617 -8.35977
LeftShoulder1  -3.88251e-019 0 -3.92111e-022
LeftArm  -34.753 1.60598 -83.813
LeftForeArm  32.6203 2.15263 -0.610537
LeftHand  -0.655847 -4.61236 7.89697
RightShoulder  7.45443e-017 -2.42657e-020 1.96277e-018
RightArm  -30.6431 -16.4695 70.7176
RightForeArm  24.4754 1.00392 1.91642
RightHand  -1.33697 9.38641 -10.8403
LeftUpLeg  -13.5422 -2.74506 0.465716
LeftLeg  30.6521 9.36307 6.28015
LeftFoot  -15.8933 0.32244 5.71821
LeftToes  3.91355e-005 3.11907e-005 -4.10385e-006
171
root  0.468093 66.7271 37.6843 178.068 -45.8387 -179.493
RightUpLeg  -8.47709 2.11686 4.1335
RightLeg  13.0728 7.30846 1.30531
RightFoot  -2.21228 -0.0893523 0.930174
RightToes  2.84633e-005 7.89722e-005 -0.000426369
Spine  2.10969 -0.424824 4.32366
Spine1  4.19739 -0.970265 6.94308
HEad  31.4031 -7.05672 -8.10413
LeftShoulder1  -3.88251e-019 0 -3.92111e-022
LeftArm  -35.1145 1.53714 -83.819
LeftForeArm  33.3463 2.05189 0.138142
LeftHand  -0.677295 -4.42131 8.29245
RightShoulder  7.45443e-017 -2.42657e-020 1.96277e-018
RightArm  -30.1356 -15.6933 70.7474
RightForeArm  25.4635 1.15265 2.30454
RightHand  -1.2801 9.26772 -10.4773
LeftUpLeg  -13.7332 -6.86206 1.16105
LeftLeg  27.5481 4.67634 2.98458
LeftFoot  -13.9546 0.201431 5.14852
LeftToes  3.91355e-005 3.11907e-005 -4.10385e-006
172
root  0.0657646 66.7488 37.8733 177.735 -38.922 -179.462
RightUpLeg  -8.14292 3.16766 4.15121
RightLeg  13.3228 12.7233 2.42204
RightFoot  -2.58754 -0.169693 1.99042
RightToes  2.84633e-005 7.89722e-005 -0.000426369
Spine  2.38441 -0.234216 4.06064
Spine1  4.76417 -0.616278 6.84945
HEad  31.9375 -5.94035 -7.60309
LeftShoulder1  -3.88251e-019 0 -3.92111e-022
LeftArm  -35.1348 1.78177 -83.9203
LeftForeArm  33.7979 2.00804 0.462538
LeftHand  -0.668187 -4.24321 8.32532
RightShoulder  7.45443e-017 -2.42657e-020 1.96277e-018
RightArm  -29.7482 -14.8882 70.6194
RightForeArm  26.5828 1.05707 2.59919
RightHand  -1.24529 9.44536 -10.0896
LeftUpLeg  -12.9967 -8.93038 1.75743
LeftLeg  23.3649 -0.410347 0.134603
LeftFoot  -8.84335 -0.0261986 3.67001
LeftToes  3.91355e-005 3.11907e-005 -4.10385e-006
173
root  -0.384077 66.7411 37.9932 177.163 -32.3861 -179.04
RightUpLeg  -7.76314 4.40374 4.41864
RightLeg  13.7063 17.3178 3.47606
RightFoot  -3.57966 -0.302402 4.11194
RightToes  2.84633e-005 7.89722e-005 -0.000426369
Spine  2.63083 -0.200885 3.90485
Spine1  5.25928 -0.562836 6.84902
HEad  32.247 -4.6858 -7.06967
LeftShoulder1  -3.88251e-019 0 -3.92111e-022
LeftArm  -35.2245 2.61119 -84.1204
LeftForeArm  33.8851 2.00171 0.501291
LeftHand  -0.639545 -4.18248 8.02929
RightShoulder  7.45443e-017 -2.42657e-020 1.96277e-018
RightArm  -29.421 -13.9066 70.3715
RightForeArm  28.18 0.852856 3.03942
RightHand  -1.25857 9.59186 -10.0986
LeftUpLeg  -11.8212 -8.65793 2.39735
LeftLeg  20.3096 -2.98891 -0.907439
LeftFoot  -4.36151 -0.147509 2.79984
LeftToes  3.91355e-005 3.11907e-005 -4.10385e-006
